<svg width="80" height="79" viewBox="0 0 80 79" fill="none" xmlns="http://www.w3.org/2000/svg">
<rect width="80" height="78.37" rx="39.185" fill="#FF9900" fill-opacity="0.44"/>
<path d="M56 35.5V47.75C56 49.1424 55.4943 50.4777 54.5941 51.4623C53.6939 52.4469 52.473 53 51.2 53H28.8C27.527 53 26.3061 52.4469 25.4059 51.4623C24.5057 50.4777 24 49.1424 24 47.75V35.5H56ZM49.6 42.5H44.8C44.3757 42.5 43.9687 42.6844 43.6686 43.0126C43.3686 43.3408 43.2 43.7859 43.2 44.25C43.2 44.7141 43.3686 45.1592 43.6686 45.4874C43.9687 45.8156 44.3757 46 44.8 46H49.6C50.0243 46 50.4313 45.8156 50.7314 45.4874C51.0314 45.1592 51.2 44.7141 51.2 44.25C51.2 43.7859 51.0314 43.3408 50.7314 43.0126C50.4313 42.6844 50.0243 42.5 49.6 42.5ZM51.2 25C52.473 25 53.6939 25.5531 54.5941 26.5377C55.4943 27.5223 56 28.8576 56 30.25V32H24V30.25C24 28.8576 24.5057 27.5223 25.4059 26.5377C26.3061 25.5531 27.527 25 28.8 25H51.2Z" fill="#FF9900"/>
</svg>
