<svg width="34" height="28" viewBox="0 0 34 28" fill="none" xmlns="http://www.w3.org/2000/svg">
<path d="M28.6666 0.666672C29.9927 0.666672 31.2645 1.19346 32.2022 2.13114C33.1399 3.06882 33.6666 4.34059 33.6666 5.66667V22.3333C33.6666 23.6594 33.1399 24.9312 32.2022 25.8689C31.2645 26.8066 29.9927 27.3333 28.6666 27.3333H5.33331C4.00723 27.3333 2.73546 26.8066 1.79778 25.8689C0.860097 24.9312 0.333313 23.6594 0.333313 22.3333V5.66667C0.333313 4.34059 0.860097 3.06882 1.79778 2.13114C2.73546 1.19346 4.00723 0.666672 5.33331 0.666672H28.6666ZM30.3333 10.6667H3.66665V22.3333C3.6667 22.7416 3.81657 23.1356 4.08784 23.4406C4.3591 23.7457 4.73289 23.9406 5.13831 23.9883L5.33331 24H28.6666C29.0749 24 29.4689 23.8501 29.7739 23.5788C30.079 23.3075 30.2739 22.9338 30.3216 22.5283L30.3333 22.3333V10.6667ZM25.3333 15.6667C25.7581 15.6671 26.1667 15.8298 26.4756 16.1214C26.7845 16.413 26.9704 16.8116 26.9953 17.2357C27.0202 17.6597 26.8822 18.0773 26.6095 18.4031C26.3369 18.7288 25.9501 18.9382 25.5283 18.9883L25.3333 19H20.3333C19.9085 18.9995 19.4999 18.8369 19.191 18.5453C18.8821 18.2536 18.6963 17.8551 18.6714 17.431C18.6465 17.0069 18.7844 16.5894 19.0571 16.2636C19.3297 15.9379 19.7165 15.7285 20.1383 15.6783L20.3333 15.6667H25.3333ZM28.6666 4.00001H5.33331C4.89129 4.00001 4.46736 4.1756 4.1548 4.48816C3.84224 4.80072 3.66665 5.22464 3.66665 5.66667V7.33334H30.3333V5.66667C30.3333 5.22464 30.1577 4.80072 29.8452 4.48816C29.5326 4.1756 29.1087 4.00001 28.6666 4.00001Z" fill="#0066FF"/>
</svg>
