<svg width="80" height="79" viewBox="0 0 80 79" fill="none" xmlns="http://www.w3.org/2000/svg">
<rect width="80" height="78.37" rx="39.185" fill="#C9C2D4"/>
<path d="M56.6666 22.3333H23.3333C22.8913 22.3333 22.4673 22.5089 22.1548 22.8215C21.8422 23.134 21.6666 23.558 21.6666 24V37.3333C21.6666 37.7754 21.8422 38.1993 22.1548 38.5118C22.4673 38.8244 22.8913 39 23.3333 39H28.3333V54C28.3333 54.442 28.5089 54.8659 28.8214 55.1785C29.134 55.4911 29.5579 55.6667 30 55.6667H50C50.442 55.6667 50.8659 55.4911 51.1785 55.1785C51.491 54.8659 51.6666 54.442 51.6666 54V39H56.6666C57.1087 39 57.5326 38.8244 57.8451 38.5118C58.1577 38.1993 58.3333 37.7754 58.3333 37.3333V24C58.3333 23.558 58.1577 23.134 57.8451 22.8215C57.5326 22.5089 57.1087 22.3333 56.6666 22.3333ZM31.6666 52.3333V49C32.5507 49 33.3985 49.3512 34.0236 49.9763C34.6488 50.6014 35 51.4493 35 52.3333H31.6666ZM48.3333 52.3333H45C45 51.4493 45.3512 50.6014 45.9763 49.9763C46.6014 49.3512 47.4492 49 48.3333 49V52.3333ZM48.3333 45.6667C46.5652 45.6667 44.8695 46.369 43.6192 47.6193C42.369 48.8695 41.6666 50.5652 41.6666 52.3333H38.3333C38.3333 50.5652 37.6309 48.8695 36.3807 47.6193C35.1304 46.369 33.4347 45.6667 31.6666 45.6667V32.3333H48.3333V45.6667ZM55 35.6667H51.6666V30.6667C51.6666 30.2246 51.491 29.8007 51.1785 29.4882C50.8659 29.1756 50.442 29 50 29H30C29.5579 29 29.134 29.1756 28.8214 29.4882C28.5089 29.8007 28.3333 30.2246 28.3333 30.6667V35.6667H25V25.6667H55V35.6667ZM40 44C40.9889 44 41.9556 43.7067 42.7778 43.1573C43.6001 42.6079 44.2409 41.827 44.6194 40.9134C44.9978 39.9998 45.0968 38.9944 44.9039 38.0245C44.711 37.0546 44.2348 36.1637 43.5355 35.4645C42.8362 34.7652 41.9453 34.289 40.9754 34.0961C40.0055 33.9031 39.0002 34.0022 38.0865 34.3806C37.1729 34.759 36.392 35.3999 35.8426 36.2221C35.2932 37.0444 35 38.0111 35 39C35 40.3261 35.5267 41.5978 36.4644 42.5355C37.4021 43.4732 38.6739 44 40 44ZM40 37.3333C40.3296 37.3333 40.6518 37.4311 40.9259 37.6142C41.2 37.7973 41.4136 38.0576 41.5398 38.3622C41.6659 38.6667 41.6989 39.0018 41.6346 39.3251C41.5703 39.6484 41.4116 39.9454 41.1785 40.1785C40.9454 40.4116 40.6484 40.5703 40.3251 40.6346C40.0018 40.6989 39.6667 40.6659 39.3622 40.5398C39.0576 40.4136 38.7973 40.2 38.6142 39.9259C38.431 39.6519 38.3333 39.3296 38.3333 39C38.3333 38.558 38.5089 38.134 38.8214 37.8215C39.134 37.5089 39.5579 37.3333 40 37.3333Z" fill="black"/>
</svg>
