<svg width="30" height="36" viewBox="0 0 30 36" fill="none" xmlns="http://www.w3.org/2000/svg">
<path d="M4.66958 31.2071L5.37669 30.5L4.66958 29.7929L2.14169 27.265L2.49748 26.9117L6.08576 30.5L2.50248 34.0833L2.1492 33.7275L4.66958 31.2071ZM2.14169 14.765L2.49748 14.4117L6.08576 18L2.50248 21.5833L2.1492 21.2275L4.66958 18.7071L5.37669 18L4.66958 17.2929L2.14169 14.765ZM2.14169 2.265L2.49748 1.91172L6.08576 5.5L2.50248 9.08328L2.1492 8.72749L4.66958 6.20711L5.37669 5.5L4.66958 4.79289L2.14169 2.265ZM13.5 30.25H29V30.75H13.5V30.25ZM13.5 17.75H29V18.25H13.5V17.75ZM13.5 5.25H29V5.75H13.5V5.25Z" fill="#0066FF" stroke="#0066FF" stroke-width="2"/>
</svg>
