<svg width="34" height="36" viewBox="0 0 34 36" fill="none" xmlns="http://www.w3.org/2000/svg">
<path d="M17 23C19.7614 23 22 20.7614 22 18C22 15.2386 19.7614 13 17 13C14.2386 13 12 15.2386 12 18C12 20.7614 14.2386 23 17 23Z" stroke="#0066FF" stroke-width="2"/>
<path d="M19.9417 1.58667C19.33 1.33333 18.5534 1.33333 17 1.33333C15.4467 1.33333 14.67 1.33333 14.0584 1.58667C13.6537 1.75419 13.2859 1.99982 12.9762 2.30954C12.6665 2.61925 12.4209 2.98697 12.2534 3.39167C12.1 3.76333 12.0384 4.19833 12.015 4.83C12.0046 5.28665 11.8784 5.73316 11.648 6.12762C11.4177 6.52207 11.0909 6.85151 10.6984 7.085C10.2998 7.3084 9.85109 7.42683 9.39424 7.42917C8.93739 7.4315 8.48745 7.31766 8.08669 7.09833C7.52669 6.80167 7.12169 6.63833 6.72002 6.585C5.84388 6.46978 4.95785 6.70718 4.25669 7.245C3.73335 7.65 3.34335 8.32167 2.56669 9.66667C1.79002 11.0117 1.40002 11.6833 1.31502 12.3417C1.25774 12.7758 1.28655 13.2169 1.3998 13.6398C1.51304 14.0628 1.7085 14.4593 1.97502 14.8067C2.22169 15.1267 2.56669 15.395 3.10169 15.7317C3.89002 16.2267 4.39669 17.07 4.39669 18C4.39669 18.93 3.89002 19.7733 3.10169 20.2667C2.56669 20.605 2.22002 20.8733 1.97502 21.1933C1.7085 21.5407 1.51304 21.9372 1.3998 22.3602C1.28655 22.7831 1.25774 23.2242 1.31502 23.6583C1.40169 24.315 1.79002 24.9883 2.56502 26.3333C3.34335 27.6783 3.73169 28.35 4.25669 28.755C4.60408 29.0215 5.00058 29.217 5.42353 29.3302C5.84648 29.4435 6.2876 29.4723 6.72169 29.415C7.12169 29.3617 7.52669 29.1983 8.08669 28.9017C8.48745 28.6823 8.93739 28.5685 9.39424 28.5708C9.85109 28.5732 10.2998 28.6916 10.6984 28.915C11.5034 29.3817 11.9817 30.24 12.015 31.17C12.0384 31.8033 12.0984 32.2367 12.2534 32.6083C12.4209 33.013 12.6665 33.3807 12.9762 33.6905C13.2859 34.0002 13.6537 34.2458 14.0584 34.4133C14.67 34.6667 15.4467 34.6667 17 34.6667C18.5534 34.6667 19.33 34.6667 19.9417 34.4133C20.3464 34.2458 20.7141 34.0002 21.0238 33.6905C21.3335 33.3807 21.5792 33.013 21.7467 32.6083C21.9 32.2367 21.9617 31.8033 21.985 31.17C22.0184 30.24 22.4967 29.38 23.3017 28.915C23.7002 28.6916 24.1489 28.5732 24.6058 28.5708C25.0626 28.5685 25.5126 28.6823 25.9134 28.9017C26.4734 29.1983 26.8784 29.3617 27.2784 29.415C27.7124 29.4723 28.1536 29.4435 28.5765 29.3302C28.9995 29.217 29.396 29.0215 29.7434 28.755C30.2684 28.3517 30.6567 27.6783 31.4334 26.3333C32.21 24.9883 32.6 24.3167 32.685 23.6583C32.7423 23.2242 32.7135 22.7831 32.6002 22.3602C32.487 21.9372 32.2915 21.5407 32.025 21.1933C31.7784 20.8733 31.4334 20.605 30.8984 20.2683C30.5079 20.031 30.1842 19.6983 29.9577 19.3015C29.7312 18.9047 29.6092 18.4569 29.6034 18C29.6034 17.07 30.11 16.2267 30.8984 15.7333C31.4334 15.395 31.78 15.1267 32.025 14.8067C32.2915 14.4593 32.487 14.0628 32.6002 13.6398C32.7135 13.2169 32.7423 12.7758 32.685 12.3417C32.5984 11.685 32.21 11.0117 31.435 9.66667C30.6567 8.32167 30.2684 7.65 29.7434 7.245C29.396 6.97848 28.9995 6.78302 28.5765 6.66978C28.1536 6.55653 27.7124 6.52772 27.2784 6.585C26.8784 6.63833 26.4734 6.80167 25.9117 7.09833C25.5111 7.31736 25.0615 7.43104 24.605 7.4287C24.1484 7.42637 23.7 7.30811 23.3017 7.085C22.9091 6.85151 22.5823 6.52207 22.352 6.12762C22.1217 5.73316 21.9954 5.28665 21.985 4.83C21.9617 4.19667 21.9017 3.76333 21.7467 3.39167C21.5792 2.98697 21.3335 2.61925 21.0238 2.30954C20.7141 1.99982 20.3464 1.75419 19.9417 1.58667Z" stroke="#0066FF" stroke-width="2"/>
</svg>
