<svg width="34" height="34" viewBox="0 0 34 34" fill="none" xmlns="http://www.w3.org/2000/svg">
<path d="M1.66669 3.54166C1.66669 3.04438 1.86423 2.56746 2.21586 2.21583C2.56749 1.8642 3.04441 1.66666 3.54169 1.66666H11.0417C11.539 1.66666 12.0159 1.8642 12.3675 2.21583C12.7191 2.56746 12.9167 3.04438 12.9167 3.54166V12.9167C12.9167 13.4139 12.7191 13.8909 12.3675 14.2425C12.0159 14.5941 11.539 14.7917 11.0417 14.7917H3.54169C3.04441 14.7917 2.56749 14.5941 2.21586 14.2425C1.86423 13.8909 1.66669 13.4139 1.66669 12.9167V3.54166ZM20.4167 3.54166C20.4167 3.04438 20.6142 2.56746 20.9659 2.21583C21.3175 1.8642 21.7944 1.66666 22.2917 1.66666H29.7917C30.289 1.66666 30.7659 1.8642 31.1175 2.21583C31.4691 2.56746 31.6667 3.04438 31.6667 3.54166V7.29166C31.6667 7.78894 31.4691 8.26585 31.1175 8.61748C30.7659 8.96911 30.289 9.16666 29.7917 9.16666H22.2917C21.7944 9.16666 21.3175 8.96911 20.9659 8.61748C20.6142 8.26585 20.4167 7.78894 20.4167 7.29166V3.54166ZM1.66669 24.1667C1.66669 23.6694 1.86423 23.1925 2.21586 22.8408C2.56749 22.4892 3.04441 22.2917 3.54169 22.2917H11.0417C11.539 22.2917 12.0159 22.4892 12.3675 22.8408C12.7191 23.1925 12.9167 23.6694 12.9167 24.1667V29.7917C12.9167 30.2889 12.7191 30.7659 12.3675 31.1175C12.0159 31.4691 11.539 31.6667 11.0417 31.6667H3.54169C3.04441 31.6667 2.56749 31.4691 2.21586 31.1175C1.86423 30.7659 1.66669 30.2889 1.66669 29.7917V24.1667ZM20.4167 18.5417C20.4167 18.0444 20.6142 17.5675 20.9659 17.2158C21.3175 16.8642 21.7944 16.6667 22.2917 16.6667H29.7917C30.289 16.6667 30.7659 16.8642 31.1175 17.2158C31.4691 17.5675 31.6667 18.0444 31.6667 18.5417V29.7917C31.6667 30.2889 31.4691 30.7659 31.1175 31.1175C30.7659 31.4691 30.289 31.6667 29.7917 31.6667H22.2917C21.7944 31.6667 21.3175 31.4691 20.9659 31.1175C20.6142 30.7659 20.4167 30.2889 20.4167 29.7917V18.5417Z" stroke="#0066FF" stroke-width="3"/>
</svg>
